#!OML:ASF E:\Mandelcareful walks\Project 1\Capture day 1\Session 1\Subject1.ASF
:FULLY-SPECIFIED
:DEGREES
529
root -5.85197 14.0898 -1.96863 -337.806 16.0539 2.82631
lowerback 26.1285 -5.84866 -5.11765
upperback 8.01015 -8.58338 -0.451313
thorax -4.75501 -4.1137 4.85063
lowerneck -25.1076 -4.06515 -4.23347
upperneck 17.4247 -7.17359 12.9915
head 10.4181 -2.03301 4.19829
rclavicle -1.08139e-013 3.18055e-014
rhumerus -13.6106 -1.4838 -19.193
rradius 135.042
rwrist -41.79
rhand -15.8135 -16.0324
rfingers 7.12502
rthumb 10.38 -45.7562
lclavicle -1.08139e-013 3.18055e-014
lhumerus -48.7876 -40.2487 88.1012
lradius 76.5544
lwrist -3.02144
lhand -26.3324 -19.8472
lfingers 7.12502
lthumb 0.224745 10.1324
rfemur -75.128 0.946311 4.66857
rtibia 63.6179
rfoot -8.13876 22.5067
rtoes 6.75826
lfemur -41.6349 43.774 -21.2413
ltibia 73.2016
lfoot -38.7381 20.2787
ltoes -16.9643
530
root -5.89206 14.106 -1.93557 -338.019 15.7674 2.92334
lowerback 26.585 -5.50263 -6.19869
upperback 8.04489 -8.39958 -0.0256954
thorax -4.71925 -4.03905 5.90309
lowerneck -27.673 -2.91857 -5.03079
upperneck 18.2905 -4.90569 11.4127
head 10.9051 -1.13458 4.17795
rclavicle -1.24042e-013 2.54444e-014
rhumerus -15.1493 4.10801 -22.7758
rradius 134.131
rwrist -39.1363
rhand -13.3761 -16.9116
rfingers 7.12502
rthumb 12.7307 -46.5035
lclavicle -1.24042e-013 2.54444e-014
lhumerus -47.1024 -38.5503 87.6176
lradius 77.1999
lwrist -2.60608
lhand -26.1912 -20.1326
lfingers 7.12502
lthumb 0.361031 9.84685
rfemur -74.8429 1.62346 4.43842
rtibia 63.6273
rfoot -8.72509 22.1431
rtoes 4.67545
lfemur -40.7886 44.0584 -20.8139
ltibia 72.774
lfoot -38.558 20.0255
ltoes -17.0958
531
root -5.93683 14.1152 -1.90889 -338.077 15.5295 3.07061
lowerback 26.991 -4.69684 -6.5712
upperback 7.76843 -7.53561 -0.279566
thorax -5.32725 -3.57922 5.67194
lowerneck -28.8791 -2.04793 -4.08203
upperneck 19.0771 -3.6485 9.60876
head 11.2121 -0.675379 3.59647
rclavicle -1.35174e-013 4.29375e-014
rhumerus -19.7305 8.60938 -27.658
rradius 132.349
rwrist -35.0656
rhand -8.74532 -14.56
rfingers 7.12502
rthumb 17.1916 -43.8195
lclavicle -1.35174e-013 4.29375e-014
lhumerus -48.3335 -41.633 87.4453
lradius 80.951
lwrist -0.25999
lhand -26.4999 -18.4466
lfingers 7.12502
lthumb 0.0629446 11.5331
rfemur -74.7869 2.20294 4.17105
rtibia 63.7029
rfoot -8.96621 21.7439
rtoes 2.91316
lfemur -40.2757 44.3798 -20.6106
ltibia 72.434
lfoot -38.2787 19.8432
ltoes -17.2748
532
root -5.92293 14.124 -1.91343 -337.682 16.6957 3.48372
lowerback 26.6315 -4.81605 -5.37351
upperback 7.746 -7.38283 -0.603203
thorax -5.41058 -3.49312 4.58068
lowerneck -30.1915 -1.17495 -3.22304
upperneck 19.6337 -2.36074 7.9119
head 11.4973 -0.217939 3.0725
rclavicle -1.06549e-013 6.04305e-014
rhumerus -24.0933 12.5932 -33.1659
rradius 130.914
rwrist -32.4585
rhand -7.70438 -14.9982
rfingers 7.12502
rthumb 18.1933 -44.1673
lclavicle -1.06549e-013 6.04305e-014
lhumerus -45.0945 -41.1715 86.3805
lradius 79.6103
lwrist -0.581465
lhand -26.1602 -19.01
lfingers 7.12502
lthumb 0.39098 10.9693
rfemur -74.6618 1.01917 4.01789
rtibia 63.7712
rfoot -8.99582 21.6322
rtoes 2.38206
lfemur -40.8679 42.9238 -21.1306
ltibia 72.2736
lfoot -38.2188 20.1442
ltoes -17.094
533
root -5.92302 14.1311 -1.90609 -337.549 17.7188 3.79417
lowerback 26.6666 -4.89974 -4.40332
upperback 7.61424 -7.27023 -0.888088
thorax -5.75643 -3.41566 3.71699
lowerneck -30.95 -0.181739 -2.50024
upperneck 19.966 -0.863661 6.28381
head 11.6311 0.301592 2.62457
rclavicle -4.13472e-014 2.22639e-014
rhumerus -28.0726 16.2354 -38.9507
rradius 128.963
rwrist -29.4437
rhand -5.85595 -13.3454
rfingers 7.12502
rthumb 19.9708 -42.3392
lclavicle -4.13472e-014 2.22639e-014
lhumerus -43.9179 -41.553 85.5991
lradius 80.734
lwrist 0.132726
lhand -25.7908 -19.203
lfingers 7.12502
lthumb 0.747808 10.7754
rfemur -74.3361 0.235482 3.87309
rtibia 63.9009
rfoot -9.35048 21.3747
rtoes 1.68085
lfemur -40.9709 41.7539 -21.1629
ltibia 72.1025
lfoot -38.0677 20.3029
ltoes -17.1231
534
root -5.91764 14.1273 -1.90758 -336.913 18.8114 4.29805
lowerback 26.2156 -5.08847 -3.58749
upperback 7.38897 -7.31388 -1.07803
thorax -5.91733 -3.42808 3.04546
lowerneck -32.3463 0.731295 -1.39442
upperneck 20.931 0.44511 4.23755
head 12.1767 0.701904 1.94448
rclavicle -3.97569e-015 -1.11319e-014
rhumerus -31.4241 19.4473 -44.7282
rradius 126.493
rwrist -25.7357
rhand -5.05367 -12.0733
rfingers 7.12502
rthumb 20.7418 -40.9848
lclavicle -3.97569e-015 -1.11319e-014
lhumerus -42.7255 -41.1638 85.0517
lradius 81.7299
lwrist 0.696479
lhand -25.0785 -19.932
lfingers 7.12502
lthumb 1.43574 10.0429
rfemur -74.5307 -0.892506 3.55074
rtibia 64.0938
rfoot -9.64686 21.1939
rtoes 1.49114
lfemur -41.8548 40.2936 -21.8422
ltibia 72.0418
lfoot -38.1615 20.4976
ltoes -17.6021
535
root -5.933 14.1311 -1.89618 -336.886 20.0125 4.59809
lowerback 26.5829 -5.21304 -3.02891
upperback 7.20273 -7.34397 -1.07584
thorax -6.37459 -3.42201 2.79515
lowerneck -33.5458 1.72888 -0.381337
upperneck 21.8603 1.91879 2.22967
head 12.7323 1.14393 1.31899
rclavicle 1.27222e-014 -1.43125e-014
rhumerus -34.1254 22.098 -50.1833
rradius 123.621
rwrist -22.5873
rhand -3.99633 -10.3871
rfingers 7.12502
rthumb 21.7575 -39.1842
lclavicle 1.27222e-014 -1.43125e-014
lhumerus -41.6191 -40.4083 84.8225
lradius 82.5731
lwrist 1.31656
lhand -25.0261 -20.1298
lfingers 7.12502
lthumb 1.48632 9.84474
rfemur -74.0798 -1.61953 3.49121
rtibia 64.3853
rfoot -10.1982 20.8244
rtoes 1.25627
lfemur -41.7953 39.1267 -21.5871
ltibia 71.8958
lfoot -38.124 20.5121
ltoes -18.4733
536
root -5.9806 14.134 -1.84457 -336.723 20.5731 4.69388
lowerback 26.4247 -4.8753 -3.35002
upperback 6.99125 -6.98905 -0.888663
thorax -6.48768 -3.24744 3.07015
lowerneck -34.025 2.69348 0.235879
upperneck 22.2301 3.44802 0.607531
head 12.9838 1.61558 0.899486
rclavicle -9.06458e-014 -3.18055e-015
rhumerus -36.4095 24.2626 -55.272
rradius 120.467
rwrist -20.1523
rhand -3.23346 -9.31083
rfingers 7.12502
rthumb 22.4899 -38.0212
lclavicle -9.06458e-014 -3.18055e-015
lhumerus -40.5388 -39.5025 84.7364
lradius 83.2529
lwrist 2.05015
lhand -25.5817 -20.5289
lfingers 7.12502
lthumb 0.94976 9.44876
rfemur -73.9903 -1.34429 3.23229
rtibia 64.6839
rfoot -10.9235 20.069
rtoes 1.27314
lfemur -41.6594 38.7301 -21.206
ltibia 71.693
lfoot -37.9389 20.3245
ltoes -18.9874
537
root -6.04946 14.1258 -1.81552 -336.766 21.2852 4.54136
lowerback 26.5789 -4.47976 -3.4836
upperback 6.74394 -6.51618 -0.639739
thorax -6.8229 -3.00724 3.30417
lowerneck -34.4128 3.51322 1.19435
upperneck 22.8304 4.68901 -1.22608
head 13.3777 1.94742 0.286458
rclavicle 6.12257e-014 -1.11319e-014
rhumerus -38.6753 25.7727 -60.1706
rradius 117.241
rwrist -18.2679
rhand -3.31022 -9.04174
rfingers 7.12502
rthumb 22.4162 -37.761
lclavicle 6.12257e-014 -1.11319e-014
lhumerus -39.6169 -38.7869 84.8833
lradius 83.8183
lwrist 3.01833
lhand -26.5853 -21.1064
lfingers 7.12502
lthumb -0.0195809 8.87333
rfemur -73.9556 -0.85556 3.33283
rtibia 65.0185
rfoot -11.4666 19.102
rtoes 2.82469
lfemur -41.6388 38.7101 -20.3518
ltibia 71.5373
lfoot -37.1597 19.8088
ltoes -19.6636
538
root -6.04478 14.1299 -1.80867 -337.166 22.1706 4.44049
lowerback 26.9612 -4.51003 -2.41566
upperback 6.60488 -6.2977 -0.742196
thorax -7.31475 -2.89399 2.56951
lowerneck -34.1666 4.15942 1.75741
upperneck 22.9536 5.73305 -2.53669
head 13.4704 2.247 -0.110217
rclavicle -1.59028e-014 3.97569e-014
rhumerus -40.5899 26.6779 -64.6556
rradius 114.121
rwrist -17.218
rhand -2.93139 -8.59454
rfingers 7.12502
rthumb 22.7798 -37.2696
lclavicle -1.59028e-014 3.97569e-014
lhumerus -38.9959 -37.9494 85.4792
lradius 84.2135
lwrist 3.94656
lhand -28.1765 -21.0843
lfingers 7.12502
lthumb -1.55634 8.88975
rfemur -73.2369 -1.09532 3.43855
rtibia 65.1373
rfoot -11.9636 18.6787
rtoes 5.18683
lfemur -41.2116 37.7156 -19.7178
ltibia 71.371
lfoot -37.0507 19.8498
ltoes -20.0364
539
root -6.0829 14.1353 -1.75665 -337.201 23.0173 4.56135
lowerback 26.7907 -4.36464 -2.26948
upperback 6.49116 -6.06873 -0.669744
thorax -7.37633 -2.78534 2.48811
lowerneck -34.2718 4.87787 2.27074
upperneck 23.1477 6.89562 -3.80051
head 13.6827 2.59273 -0.448182
rclavicle -8.74653e-015 -2.50469e-014
rhumerus -41.8833 27.3784 -68.3724
rradius 111.247
rwrist -16.557
rhand -2.20385 -7.9251
rfingers 7.12502
rthumb 23.4779 -36.5125
lclavicle -8.74653e-015 -2.50469e-014
lhumerus -38.4702 -36.9962 85.8083
lradius 84.7925
lwrist 5.12953
lhand -29.2067 -20.9762
lfingers 7.12502
lthumb -2.55134 8.98831
rfemur -72.7982 -0.954856 3.26606
rtibia 65.424
rfoot -12.7269 17.7607
rtoes 4.8052
lfemur -40.8731 37.0543 -19.1486
ltibia 71.0755
lfoot -36.7906 19.6741
ltoes -20.6327
540
root -6.12854 14.1384 -1.69949 -337.029 23.9029 4.66463
lowerback 26.3341 -4.1781 -2.21007
upperback 6.37491 -5.7984 -0.50471
thorax -7.28001 -2.66252 2.52219
lowerneck -34.2151 5.55563 2.7108
upperneck 23.1589 8.05988 -5.12594
head 13.8194 2.92808 -0.799129
rclavicle 8.8658e-014 8.74653e-015
rhumerus -42.8703 27.7674 -71.4151
rradius 108.746
rwrist -15.5771
rhand -2.46422 -8.00462
rfingers 7.12502
rthumb 23.2281 -36.6238
lclavicle 8.8658e-014 8.74653e-015
lhumerus -37.9456 -36.6762 85.2894
lradius 85.9575
lwrist 7.3741
lhand -29.5219 -20.8377
lfingers 7.12502
lthumb -2.85577 9.12295
rfemur -72.63 -0.738641 3.07447
rtibia 65.7506
rfoot -13.261 16.7392
rtoes 1.24082
lfemur -40.7949 36.5763 -18.6735
ltibia 70.6953
lfoot -36.4036 19.3222
ltoes -21.2193
541
root -6.16789 14.1562 -1.63245 -337.181 24.9169 4.81566
lowerback 26.1563 -3.97918 -2.00434
upperback 6.37417 -5.47697 -0.404514
thorax -7.21747 -2.51371 2.40395
lowerneck -33.9625 6.09759 3.39046
upperneck 23.0467 8.91504 -6.45925
head 13.8922 3.16167 -1.25861
rclavicle 2.38542e-014 -2.38542e-015
rhumerus -43.8603 27.6432 -74.1716
rradius 106.526
rwrist -14.105
rhand -4.18826 -8.8756
rfingers 7.12502
rthumb 21.5732 -37.694
lclavicle 2.38542e-014 -2.38542e-015
lhumerus -37.3532 -36.7966 84.6011
lradius 87.0914
lwrist 10.0888
lhand -29.8008 -20.1056
lfingers 7.12502
lthumb -3.1251 9.85128
rfemur -71.9768 -0.440417 2.86222
rtibia 66.1475
rfoot -14.231 15.5335
rtoes -0.00432351
lfemur -40.1067 36.0517 -17.9822
ltibia 70.1223
lfoot -35.8555 18.9476
ltoes -21.8887
542
root -6.18709 14.174 -1.56315 -337.215 26.0877 5.16852
lowerback 25.7586 -3.90717 -1.56616
upperback 6.38285 -5.2645 -0.394114
thorax -7.05898 -2.42221 2.07481
lowerneck -33.743 6.56802 3.96975
upperneck 23.0651 9.65652 -7.54456
head 14.0183 3.37265 -1.62601
rclavicle 4.81059e-014 -7.15625e-015
rhumerus -44.8148 27.2553 -76.588
rradius 104.479
rwrist -12.4597
rhand -5.92908 -9.46755
rfingers 7.12502
rthumb 19.9005 -38.4686
lclavicle 4.81059e-014 -7.15625e-015
lhumerus -36.8483 -36.2592 84.7274
lradius 87.3172
lwrist 11.7671
lhand -29.6138 -19.8079
lfingers 7.12502
lthumb -2.94451 10.1515
rfemur -71.1923 -0.414262 2.49548
rtibia 66.4737
rfoot -15.3991 14.1956
rtoes 2.13178
lfemur -39.5011 35.1327 -17.5912
ltibia 69.4943
lfoot -35.3941 18.8389
ltoes -22.6865
543
root -6.22047 14.194 -1.49153 -337.336 27.2889 5.42369
lowerback 25.5685 -3.78547 -1.28893
upperback 6.32539 -5.02167 -0.22706
thorax -7.0452 -2.30942 2.01671
lowerneck -33.6229 7.01653 4.21437
upperneck 23.2184 10.4697 -8.37248
head 14.2033 3.61551 -1.81879
rclavicle 5.20816e-014 1.0138e-014
rhumerus -45.7363 26.7801 -78.4203
rradius 102.64
rwrist -11.0753
rhand -6.29593 -8.7527
rfingers 7.12502
rthumb 19.5479 -37.79
lclavicle 5.20816e-014 1.0138e-014
lhumerus -36.9067 -34.746 86.0355
lradius 86.7712
lwrist 11.6307
lhand -29.0351 -20.2647
lfingers 7.12502
lthumb -2.38565 9.70171
rfemur -70.3208 -0.251509 2.31276
rtibia 66.7653
rfoot -16.5322 12.6541
rtoes 1.19788
lfemur -38.8327 34.3833 -16.9718
ltibia 68.7802
lfoot -34.7841 18.634
ltoes -23.2003
